# xmcd
#
# Track frame offsets: 
#        150
#        10977
#        22785
#        34477
#        45437
#        58402
#        71102
#        83172
#        96135
#        109347
#        121077
#        134432
#        144922
#        158382
#        169955
#        181962
#
# Disc length: 2573 seconds
#
# Revision: 2
# Processed by: cddbd v1.5.2PL0 Copyright (c) Steve Scherf et al.
# Submitted via: ExactAudioCopy v0.95b4
#
DISCID=d30a0b10
DTITLE=Various Artist - Red Hot - The Best Of Sun Blues
DYEAR=1998
DGENRE=Blues
TTITLE0=Little Juniors Blue Flames - Mystery Train
TTITLE1=Joe Hill Louis - We All Gotta Go Sometimes
TTITLE2=Rosco Gordon - The Chicken
TTITLE3=Little Milton - Beggin' My Baby
TTITLE4=Doctor Russ - The Boogie Disease
TTITLE5=Rufus Thomas - Bear Cat
TTITLE6=Willie Nix - Baker Shop Boogie
TTITLE7=Billy 'The Kid' Emerson - No Greater Love
TTITLE8=Rosco Gordon - Shoobie Oobie
TTITLE9=Little Milton - Lookin' For My Baby
TTITLE10=Little Juniors Blue Flames - Fussin' And Fightin' Blues
TTITLE11=James Cotton - Straighten Up Baby
TTITLE12=Doctor Russ - Chicago Breakdown
TTITLE13=Eddie Snow - Ain't That Right
TTITLE14=Raymond Hill - Bourbon Street Jump
TTITLE15=Bill 'The Kid' Emerson - Red Hot
EXTD=
EXTT0=
EXTT1=
EXTT2=
EXTT3=
EXTT4=
EXTT5=
EXTT6=
EXTT7=
EXTT8=
EXTT9=
EXTT10=
EXTT11=
EXTT12=
EXTT13=
EXTT14=
EXTT15=
PLAYORDER=
